<svg width="400" height="300" viewBox="0 0 400 300" xmlns="http://www.w3.org/2000/svg">
<rect width="400" height="300" fill="#0d0d0d"/>
<rect x="30" y="40" width="340" height="200" rx="12" fill="#1a1a1a" stroke="#8a9ab0" stroke-width="2"/>
<rect x="48" y="58" width="304" height="90" rx="6" fill="#0d1520"/>
<line x1="68" y1="138" x2="68" y2="78" stroke="#00e5a0" stroke-width="8" stroke-linecap="round"/>
<line x1="92" y1="138" x2="92" y2="95" stroke="#00e5a0" stroke-width="8" stroke-linecap="round"/>
<line x1="116" y1="138" x2="116" y2="68" stroke="#4ea8ff" stroke-width="8" stroke-linecap="round"/>
<line x1="140" y1="138" x2="140" y2="88" stroke="#4ea8ff" stroke-width="8" stroke-linecap="round"/>
<line x1="164" y1="138" x2="164" y2="105" stroke="#f5a623" stroke-width="8" stroke-linecap="round"/>
<line x1="188" y1="138" x2="188" y2="72" stroke="#f5a623" stroke-width="8" stroke-linecap="round"/>
<line x1="212" y1="138" x2="212" y2="90" stroke="#ff5c5c" stroke-width="8" stroke-linecap="round"/>
<line x1="236" y1="138" x2="236" y2="80" stroke="#ff5c5c" stroke-width="8" stroke-linecap="round"/>
<line x1="260" y1="138" x2="260" y2="100" stroke="#a78bfa" stroke-width="8" stroke-linecap="round"/>
<line x1="284" y1="138" x2="284" y2="75" stroke="#a78bfa" stroke-width="8" stroke-linecap="round"/>
<line x1="308" y1="138" x2="308" y2="88" stroke="#00e5a0" stroke-width="8" stroke-linecap="round"/>
<line x1="332" y1="138" x2="332" y2="108" stroke="#4ea8ff" stroke-width="8" stroke-linecap="round"/>
<rect x="48" y="158" width="90" height="30" rx="5" fill="#0d1520" stroke="#00e5a0" stroke-width="1"/>
<text x="60" y="177" font-family="Arial" font-size="12" fill="#00e5a0">RS485</text>
<rect x="155" y="158" width="90" height="30" rx="5" fill="#0d1520" stroke="#4ea8ff" stroke-width="1"/>
<text x="175" y="177" font-family="Arial" font-size="12" fill="#4ea8ff">GPRS</text>
<rect x="262" y="158" width="90" height="30" rx="5" fill="#0d1520" stroke="#f5a623" stroke-width="1"/>
<text x="280" y="177" font-family="Arial" font-size="12" fill="#f5a623">SD Card</text>
<text x="85" y="225" font-family="Arial" font-size="13" fill="#8a9ab0">16-channel · 4–20mA · Industrial grade</text>
<text x="85" y="265" font-family="Arial" font-size="14" font-weight="bold" fill="#8a9ab0">Industrial Data Logger</text>
</svg>