<svg width="400" height="300" viewBox="0 0 400 300" xmlns="http://www.w3.org/2000/svg">
<rect width="400" height="300" fill="#0d1a0d"/>
<rect x="20" y="120" width="360" height="30" rx="15" fill="#1a3a5a" stroke="#4ea8ff" stroke-width="2"/>
<rect x="165" y="85" width="70" height="70" rx="10" fill="#1a2a3a" stroke="#4ea8ff" stroke-width="2"/>
<rect x="185" y="72" width="30" height="18" rx="4" fill="#4ea8ff" opacity="0.5"/>
<circle cx="200" cy="135" r="15" fill="#0d1a2e" stroke="#00e5a0" stroke-width="2"/>
<line x1="200" y1="120" x2="200" y2="150" stroke="#00e5a0" stroke-width="2.5" stroke-linecap="round"/>
<circle cx="55" cy="135" r="12" fill="#1a3a5a" stroke="#4ea8ff" stroke-width="1.5"/>
<circle cx="110" cy="135" r="12" fill="#1a3a5a" stroke="#4ea8ff" stroke-width="1.5"/>
<circle cx="290" cy="135" r="12" fill="#1a3a5a" stroke="#4ea8ff" stroke-width="1.5"/>
<circle cx="345" cy="135" r="12" fill="#1a3a5a" stroke="#4ea8ff" stroke-width="1.5"/>
<path d="M55 147 Q55 200 35 230" stroke="#4ea8ff" stroke-width="2" fill="none" stroke-linecap="round"/>
<path d="M110 147 Q110 200 95 230" stroke="#4ea8ff" stroke-width="2" fill="none" stroke-linecap="round"/>
<path d="M290 147 Q290 200 300 230" stroke="#4ea8ff" stroke-width="1.5" fill="none" stroke-linecap="round" opacity="0.6"/>
<path d="M345 147 Q345 200 360 230" stroke="#4ea8ff" stroke-width="1.5" fill="none" stroke-linecap="round" opacity="0.4"/>
<text x="28" y="248" font-family="Arial" font-size="10" fill="#4ea8ff">Zone 1</text>
<text x="78" y="248" font-family="Arial" font-size="10" fill="#4ea8ff">Zone 2</text>
<text x="275" y="248" font-family="Arial" font-size="10" fill="#4ea8ff">Zone 7</text>
<text x="335" y="248" font-family="Arial" font-size="10" fill="#4ea8ff">Zone 8</text>
<rect x="285" y="55" width="95" height="45" rx="6" fill="#0d1a0d" stroke="#00e5a0" stroke-width="1.5"/>
<text x="297" y="75" font-family="Arial" font-size="11" fill="#00e5a0">GSM / Wi-Fi</text>
<text x="297" y="90" font-family="Arial" font-size="10" fill="#8a9ab0">8-zone control</text>
<text x="65" y="275" font-family="Arial" font-size="14" font-weight="bold" fill="#4ea8ff">Automated Farm Valve Controller</text>
</svg>