<svg width="400" height="300" viewBox="0 0 400 300" xmlns="http://www.w3.org/2000/svg">
<rect width="400" height="300" fill="#0d0d0d"/>
<rect x="20" y="50" width="90" height="180" rx="8" fill="#1a1a1a" stroke="#8a9ab0" stroke-width="1.5"/>
<text x="35" y="90" font-family="Arial" font-size="13" fill="#4ea8ff">PLC</text>
<rect x="30" y="100" width="70" height="22" rx="4" fill="#0d1520" stroke="#4ea8ff" stroke-width="0.75"/>
<text x="38" y="115" font-family="Arial" font-size="10" fill="#4ea8ff">Modbus</text>
<rect x="30" y="130" width="70" height="22" rx="4" fill="#0d1520" stroke="#00e5a0" stroke-width="0.75"/>
<text x="40" y="145" font-family="Arial" font-size="10" fill="#00e5a0">RS485</text>
<rect x="150" y="35" width="100" height="220" rx="10" fill="#1a1a1a" stroke="#f5a623" stroke-width="2"/>
<text x="172" y="72" font-family="Arial" font-size="16" fill="#f5a623">IoT</text>
<text x="158" y="90" font-family="Arial" font-size="11" fill="#f5a623">GATEWAY</text>
<rect x="162" y="105" width="76" height="100" rx="5" fill="#0d0f12"/>
<line x1="170" y1="120" x2="230" y2="120" stroke="#00e5a0" stroke-width="1.5"/>
<line x1="170" y1="135" x2="230" y2="135" stroke="#4ea8ff" stroke-width="1.5"/>
<line x1="170" y1="150" x2="230" y2="150" stroke="#f5a623" stroke-width="1.5"/>
<line x1="170" y1="165" x2="230" y2="165" stroke="#ff5c5c" stroke-width="1.5"/>
<line x1="170" y1="180" x2="230" y2="180" stroke="#a78bfa" stroke-width="1.5"/>
<text x="160" y="225" font-family="Arial" font-size="10" fill="#8a9ab0">MQTT · REST</text>
<rect x="290" y="50" width="90" height="180" rx="8" fill="#1a1a1a" stroke="#00e5a0" stroke-width="1.5"/>
<text x="305" y="90" font-family="Arial" font-size="12" fill="#00e5a0">SCADA</text>
<circle cx="335" cy="150" r="28" fill="#0d1a0d" stroke="#00e5a0" stroke-width="1.5"/>
<text x="320" y="147" font-family="Arial" font-size="11" fill="#00e5a0">▲ 86%</text>
<text x="320" y="162" font-family="Arial" font-size="9" fill="#8a9ab0">uptime</text>
<line x1="110" y1="140" x2="150" y2="140" stroke="#f5a623" stroke-width="1.5" stroke-dasharray="4,3"/>
<line x1="250" y1="140" x2="290" y2="140" stroke="#f5a623" stroke-width="1.5" stroke-dasharray="4,3"/>
<text x="75" y="268" font-family="Arial" font-size="14" font-weight="bold" fill="#f5a623">Industrial IoT Solution</text>
</svg>