<svg width="400" height="300" viewBox="0 0 400 300" xmlns="http://www.w3.org/2000/svg">
<rect width="400" height="300" fill="#0d0d0d"/>
<rect x="60" y="25" width="280" height="210" rx="18" fill="#1a1a1a" stroke="#ff5c5c" stroke-width="2"/>
<rect x="78" y="45" width="244" height="100" rx="8" fill="#0d1520" stroke="#4ea8ff" stroke-width="1"/>
<text x="90" y="105" font-family="Arial" font-size="48" fill="#ff5c5c" font-weight="bold">38°C</text>
<text x="252" y="80" font-family="Arial" font-size="14" fill="#8a9ab0">65%</text>
<text x="248" y="95" font-family="Arial" font-size="10" fill="#8a9ab0">humidity</text>
<path d="M85 162 Q110 145 135 155 Q160 165 185 148 Q210 131 235 142 Q260 153 285 138 Q310 123 328 135" stroke="#00e5a0" stroke-width="2.5" fill="none" stroke-linecap="round"/>
<circle cx="328" cy="135" r="5" fill="#00e5a0"/>
<rect x="78" y="180" width="244" height="25" rx="6" fill="#1a1a1a" stroke="#f5a623" stroke-width="1"/>
<text x="95" y="197" font-family="Arial" font-size="12" fill="#f5a623">⚠  Alert: High temp threshold exceeded</text>
<rect x="78" y="210" width="150" height="10" rx="3" fill="#0d1520"/>
<rect x="78" y="210" width="110" height="10" rx="3" fill="#ff5c5c" opacity="0.5"/>
<text x="105" y="265" font-family="Arial" font-size="14" font-weight="bold" fill="#ff5c5c">IoT Temperature Monitor</text>
</svg>